<?xml version="1.0" standalone="no"?><!DOCTYPE svg PUBLIC "-//W3C//DTD SVG 1.1//EN" "http://www.w3.org/Graphics/SVG/1.1/DTD/svg11.dtd"><svg t="1666104758443" class="icon" viewBox="0 0 1024 1024" version="1.1" xmlns="http://www.w3.org/2000/svg" p-id="1799" xmlns:xlink="http://www.w3.org/1999/xlink" width="200" height="200"><path d="M184.167555 149.612771c-6.558383-1.61476-12.798871-2.882726-18.739527-3.753325-34.693863-5.075477-59.117563 3.426398-82.614672 15.119864-23.49169 11.693465-46.065821 26.571295-59.814764 72.20001S4.316865 355.185832 1.849569 420.189865c-2.467296 65.00042-2.467296 118.619851 0 183.625689 2.467296 64.998614 7.398275 141.378216 21.149023 187.006932 13.750749 45.632329 36.323073 60.511964 59.814764 72.200011 23.495303 11.693465 47.919002 20.198952 82.614672 15.121669 5.942462-0.868792 12.181144-2.136758 18.739527-3.751518-7.945559-36.52537-14.307064-88.676345-18.083869-165.87597-5.534256-113.091013-5.534256-279.935117 0-393.026131 3.776805-77.201432 10.13831-129.356019 18.083869-165.877776zM184.167555 874.392648c31.738888-7.824543 70.890501-23.795135 119.132817-42.260117 58.210841-22.277911 129.659464-48.179098 205.119701-85.316776 75.456624-37.137678 154.92125-85.513654 205.639892-123.395495 50.724061-37.878228 72.703946-65.264128 72.703946-111.416648 0-46.157938-21.979885-73.536613-72.703946-111.422066-50.718643-37.878228-130.183268-86.254204-205.639892-123.395495-75.460237-37.135872-146.907054-63.033447-205.119701-85.313164-48.242316-18.463175-87.393929-34.442799-119.132817-42.260116 3.695525-16.978463 7.730619-30.581102 12.016778-41.756182 13.496072-35.199605 29.417896-46.268118 48.385007-58.662396 18.970723-12.388859 40.986732-26.107096 78.933597-20.554777 37.941446 5.550512 91.815554 30.369774 157.82565 56.948293 66.010096 26.573101 144.156182 54.898234 235.431676 110.972318 91.277301 56.079502 195.687623 139.913372 249.007222 197.833411 53.315986 57.92004 55.543055 89.926248 55.543054 117.610174 0 27.680313-2.227069 59.690135-55.543054 117.610175-53.321405 57.921846-157.729921 141.750297-249.007222 197.829799-91.277301 56.077696-169.421579 84.404635-235.431676 110.977736-66.010096 26.571295-119.884204 51.392362-157.82565 56.946487-37.946865 5.554125-59.962874-8.165918-78.933597-20.55839-18.967111-12.394278-34.888935-23.457372-48.385007-58.662396-4.284353-11.173274-8.321253-24.775912-12.016778-41.754375z" fill="#231815" p-id="1800"></path><path d="M551.122714 484.511146c-63.920301-48.780569-127.835182-97.56475-191.751871-146.350738-22.758365-17.372219-55.562923-1.139724-55.562923 27.49066v292.703283c0 28.630385 32.804558 44.85746 55.562923 27.485241 63.916688-48.780569 127.83157-97.56475 191.751871-146.350738 18.132637-13.839254 18.132637-41.134842 0-54.977708z" fill="#231815" p-id="1801"></path></svg>